<svg id="information" xmlns="http://www.w3.org/2000/svg" width="64" height="64" viewBox="0 0 64 64">
  <g id="Сгруппировать_2" data-name="Сгруппировать 2">
    <g id="Сгруппировать_1" data-name="Сгруппировать 1">
      <circle id="Эллипс_1" data-name="Эллипс 1" cx="3.442" cy="3.442" r="3.442" transform="translate(28.558 43.702)" fill="#fff"/>
      <path id="Контур_1" data-name="Контур 1" d="M32,0A32,32,0,1,0,64,32,31.983,31.983,0,0,0,32,0Zm0,59A27,27,0,1,1,59,32,26.985,26.985,0,0,1,32,59Z" fill="#fff"/>
      <path id="Контур_2" data-name="Контур 2" d="M187.016,128.5A11.028,11.028,0,0,0,176,139.516a2.754,2.754,0,0,0,5.508,0,5.508,5.508,0,1,1,5.508,5.508,2.754,2.754,0,0,0-2.754,2.754v6.885a2.754,2.754,0,0,0,5.508,0v-4.479a11.016,11.016,0,0,0-2.754-21.683Z" transform="translate(-155.016 -113.572)" fill="#fff"/>
    </g>
  </g>
</svg>
